<svg width="60" height="61" fill="none" xmlns="http://www.w3.org/2000/svg"><circle cx="30" cy="30.252" r="29" transform="rotate(180 30 30.252)" stroke="#F53838" stroke-width="2"/><path d="M21.25 31.503h14.825l-4.538 5.45a1.251 1.251 0 101.925 1.6l6.25-7.5c.042-.06.08-.123.113-.188 0-.063 0-.1.087-.162a1.25 1.25 0 00.088-.45 1.25 1.25 0 00-.087-.45c0-.063 0-.1-.088-.163a1.482 1.482 0 00-.113-.188l-6.25-7.5a1.25 1.25 0 00-.962-.45 1.25 1.25 0 00-.962 2.05l4.537 5.45H21.25a1.25 1.25 0 000 2.5z" fill="#F53838"/></svg>